<svg xmlns="http://www.w3.org/2000/svg" width="24" height="24" fill="#000000" viewBox="0 0 24 24">
  <path d="M12 .297c-6.627 0-12 5.373-12 12 0 5.303 3.438 9.8 8.205 11.387.6.113.82-.258.82-.577v-2.213c-3.338.726-4.033-1.416-4.033-1.416-.546-1.387-1.333-1.756-1.333-1.756-1.089-.745.083-.73.083-.73 1.205.084 1.84 1.237 1.84 1.237 1.07 1.834 2.809 1.304 3.495.997.107-.775.418-1.304.762-1.604-2.665-.307-5.466-1.334-5.466-5.93 0-1.31.469-2.381 1.235-3.221-.123-.303-.536-1.523.117-3.176 0 0 1.008-.322 3.301 1.23a11.51 11.51 0 013.003-.403c1.02.005 2.047.138 3.003.403 2.292-1.552 3.299-1.23 3.299-1.23.655 1.653.242 2.873.119 3.176.77.84 1.232 1.911 1.232 3.221 0 4.609-2.804 5.619-5.475 5.917.43.372.823 1.103.823 2.222v3.293c0 .319.218.694.825.576C20.565 22.092 24 17.592 24 12.297c0-6.627-5.373-12-12-12"></path>
</svg>
