<svg xmlns="http://www.w3.org/2000/svg" width="24" height="24" fill="#0A66C2" viewBox="0 0 24 24">
  <path d="M20.447 20.452h-3.554v-5.569c0-1.328-.028-3.039-1.852-3.039-1.853 0-2.136 1.445-2.136 2.939v5.669H9.35V9h3.414v1.561h.049c.476-.902 1.637-1.852 3.372-1.852 3.605 0 4.272 2.37 4.272 5.455v6.288zm-14.693-13.38c-1.144 0-2.067-.927-2.067-2.066 0-1.142.923-2.066 2.067-2.066 1.142 0 2.066.924 2.066 2.066 0 1.139-.924 2.066-2.066 2.066zm1.777 13.38H4.977V9h3.554v11.452zM22.225 0H1.771C.792 0 0 .774 0 1.729v20.542C0 23.227.792 24 1.771 24h20.451C23.207 24 24 23.227 24 22.271V1.729C24 .774 23.207 0 22.225 0z"></path>
</svg>
